<?xml version="1.0" encoding="utf-8"?>
<!-- Generator: Adobe Illustrator 25.0.0, SVG Export Plug-In . SVG Version: 6.00 Build 0)  -->
<svg version="1.1" id="Слой_1" xmlns="http://www.w3.org/2000/svg" xmlns:xlink="http://www.w3.org/1999/xlink" x="0px" y="0px"
	 viewBox="0 0 133.8 86.3" style="enable-background:new 0 0 133.8 86.3;" xml:space="preserve">
<style type="text/css">
	.st0{font-family:'Arial-BoldMT';}
	.st1{font-size:20px;}
	.st2{letter-spacing:1;}
	.st3{font-family:'ArialMT';}
</style>
<g id="Слой_2_1_">
	<g id="Слой_2-2">
		<path d="M28.1,52.3c-4.6-1.1-7.8-5.2-7.8-9.8c0.1-4.5,3.3-8.5,6.4-9.1c0.3-0.1,2-0.2,5.3-0.4c2.2-0.2,2.7-0.2,3.3-0.5
			c1.1-0.6,2.5-2,4-5.3c1.8-4,2-3.8,2.5-4.1c1.2-0.7,2.6-0.8,3.8-0.2c1.8,0.5,2,1.2,3.5,1.8c1.9,0.6,4,0.5,5.8-0.2
			c4-1.2,25.6-7.2,55.2-15.7c1.1-0.7,2.4-0.9,3.7-0.7c1.9,0.4,3.5,1.6,4.4,3.3l4.8,0.4c0-1,0-2,0-2.9l-4.2-4.6c0-0.6,0-1.2,0-1.8
			l-12.3,3.6c-0.6,0.9-1.5,1.6-2.5,2.1c-0.6,0.3-1.2,0.5-1.9,0.6L55.5,21.4c-1,0.2-2.4,0.4-3.1-0.4c-0.5-0.6-0.3-1.4,0-4
			s0.5-4.1,0.2-4.8c-0.8-1.6-2.4-2.7-4.2-3c-1.5-0.3-3,0-6.1,1.8c-5.7,3.3-5.4,5.2-8.8,6.5c-2.7,1-5.4,0.6-10.7-0.3s-5.8-2-9.5-2
			c-2.2,0-5.9,0-8.9,2.4s-3.7,6-4.1,7.9C-2.2,39,11.8,50.3,13.1,51.3c3.5,2.8,6,3.5,8.2,3.5C23.8,54.7,26.1,53.8,28.1,52.3z"/>
		<circle cx="107.3" cy="4" r="1.3"/>
		<circle cx="111.4" cy="2.6" r="1.3"/>
		<circle cx="115.5" cy="1.3" r="1.3"/>
		<text transform="matrix(1 0 0 1 30.06 50.85)" class="st0 st1 st2">GUI</text>
		<text transform="matrix(1 0 0 1 67.4 50.85)" class="st0 st1">T</text>
		<text transform="matrix(1 0 0 1 78.92 50.85)" class="st0 st1 st2">AR</text>
		<text transform="matrix(1 0 0 1 46.78 69.71)" class="st3 st1">S</text>
		<text transform="matrix(1 0 0 1 60.2 69.71)" class="st3 st1">CHOOL</text>
	</g>
</g>
</svg>
