<svg width="227" height="227" viewBox="0 0 227 227" fill="none" xmlns="http://www.w3.org/2000/svg">
<path fill-rule="evenodd" clip-rule="evenodd" d="M224.543 132.024C224.156 134.363 223.697 136.686 223.165 138.988L87.7313 3.55445C90.0494 3.01903 92.3713 2.55978 94.6939 2.1753L224.543 132.024ZM80.0389 5.61812C82.2163 4.9515 84.4001 4.35414 86.5876 3.8249L222.895 140.133C222.363 142.335 221.765 144.52 221.103 146.682L80.0389 5.61812ZM224.029 92.4863C224.655 95.7451 225.134 99.008 225.467 102.267L124.453 1.2526C127.741 1.58915 131.003 2.0695 134.232 2.68946L224.029 92.4863ZM114.119 0.673797C117.057 0.702683 119.983 0.846904 122.89 1.10359L225.616 103.83C225.875 106.76 226.017 109.685 226.045 112.6L114.119 0.673797ZM226.05 114.019C226.042 116.707 225.937 119.385 225.738 122.049L104.668 0.979573C107.351 0.779226 110.03 0.676358 112.699 0.668823L226.05 114.019ZM95.9132 1.98034C98.3962 1.59729 100.879 1.29941 103.359 1.085L225.632 123.358C225.417 125.855 225.118 128.339 224.738 130.805L95.9132 1.98034ZM220.767 147.761C220.107 149.843 219.387 151.905 218.609 153.944L72.7754 8.11059C73.2876 7.91551 73.802 7.72377 74.3186 7.5354C75.862 6.97269 77.4096 6.44572 78.9606 5.95406L220.767 147.761ZM65.8983 10.9894C67.816 10.112 69.7686 9.2831 71.7553 8.5047L218.214 154.964C217.439 156.938 216.609 158.889 215.725 160.816L65.8983 10.9894ZM219.183 74.987C219.461 75.75 219.731 76.5139 219.991 77.2789L149.434 6.72157C154.36 8.40139 159.163 10.4175 163.807 12.7531L213.989 62.9345C215.928 66.8031 217.665 70.8234 219.183 74.987ZM136 3.04372C139.83 3.84273 143.609 4.83868 147.323 6.02452L220.688 79.39C221.889 83.1497 222.882 86.9297 223.674 90.7171L136 3.04372ZM208.899 173.502C209.974 171.776 211.002 170.022 211.982 168.243L58.4649 14.7261C56.676 15.7094 54.922 16.7369 53.2036 17.8065L208.899 173.502ZM59.381 14.228L212.48 167.327C213.463 165.504 214.395 163.655 215.276 161.781L64.9317 11.4372C63.0469 12.321 61.1963 13.2519 59.381 14.228ZM190.953 195.556C192.547 194.037 194.092 192.475 195.588 190.873L35.8425 31.1275C34.2349 32.6316 32.6755 34.1793 31.1655 35.768L190.953 195.556ZM36.5762 30.447L196.267 190.138C197.601 188.683 198.895 187.195 200.147 185.676L41.0332 26.5623C39.5099 27.8209 38.0239 29.1165 36.5762 30.447ZM41.8108 25.9256L200.783 184.898C202.033 183.355 203.24 181.781 204.404 180.178L46.5283 22.3015C44.9192 23.4711 43.3464 24.6798 41.8108 25.9256ZM47.3505 21.7096L204.996 179.355C206.16 177.722 207.279 176.06 208.353 174.37L52.3354 18.3525C50.638 19.4307 48.9761 20.5503 47.3505 21.7096ZM166.762 14.2935C185.689 24.5166 201.773 40.1454 212.459 59.9902L166.762 14.2935ZM5.34531 147.945C5.81988 149.434 6.327 150.919 6.86703 152.4C8.02114 155.565 9.302 158.648 10.7018 161.644L65.0606 216.002C69.5084 218.088 74.0913 219.884 78.7787 221.379L5.34531 147.945ZM62.313 214.669L12.0264 164.383C23.2089 186.733 41.1139 204.027 62.313 214.669ZM4.71409 145.9L80.8237 222.01C84.4485 223.09 88.1324 223.991 91.8616 224.706L2.01311 134.857C2.72124 138.547 3.61972 142.232 4.71409 145.9ZM1.69461 133.125L93.5938 225.024C96.7672 225.581 99.9716 226.003 103.199 226.287L0.430539 123.519C0.711721 126.718 1.13187 129.922 1.69461 133.125ZM1.71896 94.1252C2.1286 91.8078 2.61003 89.5071 3.16174 87.2262L139.491 223.555C137.195 224.111 134.895 224.592 132.593 225L1.71896 94.1252ZM1.51226 95.3327L131.386 225.207C128.93 225.614 126.472 225.938 124.017 226.179L0.540337 102.702C0.78362 100.231 1.10818 97.7728 1.51226 95.3327ZM0.000609075 113.333C-0.00885951 116.206 0.0920314 119.09 0.305959 121.98L104.737 226.411C107.605 226.624 110.49 226.727 113.386 226.718L0.000609075 113.333ZM0.0139744 111.932L114.787 226.705C117.425 226.664 120.072 226.529 122.723 226.299L0.420485 103.997C0.192131 106.628 0.0559192 109.275 0.0139744 111.932ZM26.5612 40.9197C27.8264 39.4136 29.1328 37.9384 30.4795 36.4962L190.226 196.243C188.791 197.586 187.318 198.894 185.807 200.166L26.5612 40.9197ZM25.9187 41.6914L185.036 200.809C183.514 202.067 181.954 203.289 180.358 204.472L22.2588 46.3732C23.4361 44.7827 24.6564 43.2215 25.9187 41.6914ZM21.6604 47.1891L179.542 205.071C177.93 206.243 176.282 207.376 174.597 208.468L18.264 52.1344C19.3514 50.4577 20.4839 48.8086 21.6604 47.1891ZM17.711 52.9956L173.736 209.021C172.032 210.104 170.292 211.145 168.517 212.143L14.5868 58.213C15.5809 56.4472 16.6226 54.7074 17.711 52.9956ZM14.0808 59.1213L167.608 212.648C165.807 213.639 163.971 214.584 162.101 215.483L11.2415 64.6237C12.1376 62.7646 13.0844 60.9296 14.0808 59.1213ZM10.7853 65.5817L161.142 215.939C159.24 216.831 157.303 217.676 155.332 218.47L8.2487 71.3869C9.04022 69.4284 9.88611 67.4926 10.7853 65.5817ZM7.84566 72.3981L154.32 218.872C153.463 219.208 152.601 219.535 151.731 219.852C150.552 220.282 149.37 220.691 148.185 221.079L5.63624 78.5305C6.3142 76.4646 7.05108 74.4196 7.84566 72.3981ZM5.29121 79.5996L147.116 221.424C144.958 222.109 142.793 222.725 140.624 223.274L3.44218 86.0924C3.99439 83.9083 4.61119 81.7431 5.29121 79.5996Z" fill="url(#paint0_linear_66_154)" fill-opacity="0.4"/>
<defs>
<linearGradient id="paint0_linear_66_154" x1="23.128" y1="48.4123" x2="214.478" y2="166.093" gradientUnits="userSpaceOnUse">
<stop stop-color="#2D9AFF"/>
<stop offset="0.494792" stop-color="#CF5B5B"/>
<stop offset="1"/>
</linearGradient>
</defs>
</svg>
